<?xml version="1.0" standalone="no"?>
<!DOCTYPE svg PUBLIC "-//W3C//DTD SVG 20010904//EN"
 "http://www.w3.org/TR/2001/REC-SVG-20010904/DTD/svg10.dtd">
<svg version="1.0" xmlns="http://www.w3.org/2000/svg"
 width="216.000000pt" height="215.000000pt" viewBox="0 0 216.000000 215.000000"
 preserveAspectRatio="xMidYMid meet">

<g transform="translate(0.000000,215.000000) scale(0.100000,-0.100000)"
fill="#000000" stroke="none">
<path d="M980 2144 c-14 -2 -56 -9 -95 -15 -330 -54 -631 -286 -779 -600 -193
-411 -108 -899 212 -1218 208 -207 462 -311 762 -311 300 0 554 104 762 311
320 319 405 807 212 1218 -145 308 -421 526 -758 597 -71 15 -269 26 -316 18z
m305 -88 c197 -42 364 -133 506 -275 387 -388 395 -997 17 -1407 -47 -51 -58
-54 -58 -19 0 41 -39 144 -71 192 -17 24 -54 59 -82 78 -55 36 -238 115 -268
115 -17 0 -39 45 -39 80 0 10 16 44 35 76 20 33 48 97 62 144 15 47 34 91 44
98 10 6 23 28 29 48 7 20 23 54 36 77 13 23 24 48 24 56 0 21 -30 51 -52 51
-15 0 -18 8 -18 58 0 123 -31 233 -76 273 -11 9 -35 20 -54 24 -19 4 -55 26
-80 47 -50 45 -100 74 -100 59 0 -6 -16 -3 -36 5 -43 18 -126 11 -145 -12 -6
-8 -20 -14 -31 -14 -31 0 -116 -48 -157 -89 -42 -42 -60 -84 -32 -74 14 6 14
4 -1 -13 -34 -39 -48 -91 -48 -177 0 -80 -1 -84 -25 -95 -32 -15 -33 -49 -1
-111 13 -25 31 -63 40 -83 9 -21 22 -38 31 -38 8 0 15 -8 15 -17 0 -35 60
-188 90 -230 16 -24 30 -52 30 -62 0 -36 -22 -81 -40 -81 -29 0 -211 -79 -268
-118 -67 -44 -115 -116 -138 -202 -9 -36 -18 -71 -20 -79 -11 -38 -168 164
-231 296 -185 390 -108 839 196 1144 146 146 334 245 526 278 33 6 71 13 85
15 47 8 235 -3 305 -18z"/>
</g>
</svg>
